<svg width="1024" height="1026" viewBox="0 0 1024 1026" fill="none"
    xmlns="http://www.w3.org/2000/svg">
    <circle cx="512" cy="514" r="512" fill="black" />
    <mask id="mask0_14_11" style="mask-type:alpha" maskUnits="userSpaceOnUse" x="0" y="-11"
        width="1024" height="1037">
        <path
            d="M1024 514C1024 796.77 794.77 1026 512 1026C229.23 1026 0 796.77 0 514V-11H1024V514Z"
            fill="#D9D9D9" />
    </mask>
    <g mask="url(#mask0_14_11)">
        <path
            d="M527.512 326.5C522.675 352.224 518.816 366.615 513.037 384L534.537 395.5L556.037 443M556.037 443C643.512 391.251 684.893 373.688 743.537 365M556.037 443C532.128 459.943 520.923 471.038 504.537 493.5C548.8 482.52 566.378 488.402 589.537 512.5C559.893 541.957 546.281 559.852 529.037 595C538.773 594.656 543.398 595.25 550.537 597.375C531.265 724.99 554.081 651.318 519 767.829M743.537 365L774.037 255.486M743.537 365C766.797 364.394 779.377 365.87 800.537 373.5C792.176 384.53 790.108 384.262 786.537 395.5C818.49 412.466 827.992 420.415 839.037 433.5C828.795 444.624 824.64 451.374 819.037 464C827.989 480.76 832.369 490.059 839.037 506.5C839.855 509.086 839.271 510.887 837.037 514.5C867.497 661.933 855.559 822.565 831.037 966M774.037 255.486C646.887 280.228 580.311 310.052 504.537 334C482.993 340.809 436.881 389.7 256.482 366.275M774.037 255.486C824.756 245.617 885.113 236.556 959.537 229M959.537 229C815.037 243.671 773.037 229 728.537 207.5C701.537 150 719.037 82.5 831.037 8C568.537 43.5 504.537 165.5 484.537 269.5C452.236 307.26 380.612 377.307 256.482 366.275M959.537 229C926.952 288.284 893.537 285 752.537 336M218.037 360.5C354.887 391.042 425.058 390.298 518.157 367M218.037 360.5C231.488 362.779 244.291 364.692 256.482 366.275M218.037 360.5C231.376 363.294 244.186 365.182 256.482 366.275M495.037 770C442.683 728.019 414.306 701.929 365.537 650.5C355.037 635 365.537 616 355.037 591C341.303 565.333 332.366 551.044 311.037 526C305.808 508.889 302.856 498.018 297.537 475.5C286.738 455.716 282.792 444.795 278.037 425.5C272.537 413.5 255.537 417 255.537 428.5C251.429 451.178 252.242 461.513 259.537 475.5C267.493 504.174 269.177 517.716 269.037 539C254.089 549.521 246.729 551.377 234.537 551C227.606 550.16 204.608 538.9 189.037 530M495.037 770C498.194 770.517 501.192 771.097 504.037 771.74M495.037 770C529.378 767.385 548.46 764.488 582.037 755.5C584.736 737.605 584.134 726.906 582.037 707.5C588.571 699.454 593.155 695.274 603.037 688.5C600.705 684.028 598.913 681.513 594.037 677C600.865 659.497 605.282 649.844 614.537 633C610.922 633.344 608.847 633.662 605.037 634.5C611.809 605.237 616.72 588.946 626.537 560L626.77 559.312C631.288 545.976 636.427 530.805 659.037 519.5M441.537 833.5C389.341 783.319 358.609 755.886 300.537 708.5C290.723 689.627 283.35 680.056 265.537 665.5C236.167 641.5 192.811 617.5 180.037 599.5C158.037 568.5 107.037 521.5 105.537 508L103.356 495M441.537 833.5C439.037 837 436.537 844 440.037 848C443.377 850.728 446.518 853.266 449.537 855.659M441.537 833.5C457.659 849 468.233 846.059 496.656 826M559.537 891C559.48 871.614 557.537 845 550.537 816.5C546.276 799.152 540.515 785.913 522.537 777.742M559.537 891C546.037 901.5 526.037 902.673 504.037 891C500.861 889.315 492.873 885.073 490.037 883.5M559.537 891C559.992 965.941 526 1016.18 497 1016.5M497 1016.5C476.5 1016.5 451.368 963 449.537 936.5C448.259 918 446.586 901.039 449.537 855.659M497 1016.5C688 998 739.963 972 775.5 905.5C802.457 855.056 807.312 757.617 804.5 650.5M189.037 530C189.037 513.5 187.946 505.06 186.537 486C183.537 464 171.671 468.5 172.037 476C173.037 496.5 171.86 505.862 170.037 517.224M189.037 530C182.039 526 177.037 521.988 170.037 517.224M170.037 517.224L163.037 512.5M163.037 512.5L162.037 476C158.537 441 141.037 445 141.037 454L143.537 498M163.037 512.5L143.537 498M143.537 498L129.037 486C126.537 472.5 126.537 455.5 121.037 443C121.037 421.5 116.537 396.5 103.356 395C90.0997 393.491 94.537 418.5 93.037 433.5L94.0437 439.5M103.356 495C88.537 463.5 74.8514 444.814 58.537 428.5C47.537 417.5 64.537 410.5 77.537 421.5L94.0437 439.5M103.356 495L94.0437 439.5M449.537 855.659C461.816 865.39 466.084 869.538 479.537 877.5M449.537 855.659C468.208 858.964 486.239 845.993 496.656 826M504.037 771.74C508.388 772.725 512.38 773.858 516.037 775.142M504.037 771.74C508.162 791.176 504.651 810.656 496.656 826M516.037 775.142C526.537 807 503.626 877.5 479.537 877.5M516.037 775.142C518.335 775.949 520.499 776.815 522.537 777.742M479.537 877.5C482.527 879.27 486.675 881.635 490.037 883.5M522.537 777.742C541.037 810 515.537 885 490.037 883.5"
            stroke="white" stroke-width="16" />
        <mask id="mask1_14_11" style="mask-type:alpha" maskUnits="userSpaceOnUse" x="46" y="0"
            width="928" height="1026">
            <path
                d="M527.512 326.5C522.675 352.224 518.816 366.615 513.037 384L534.537 395.5L556.037 443M556.037 443C643.512 391.251 684.893 373.688 743.537 365M556.037 443C532.128 459.943 520.923 471.038 504.537 493.5C548.8 482.52 566.378 488.402 589.537 512.5C559.893 541.957 546.281 559.852 529.037 595C538.773 594.656 543.398 595.25 550.537 597.375C531.265 724.99 554.081 651.318 519 767.829M743.537 365L774.037 255.486M743.537 365C766.797 364.394 779.377 365.87 800.537 373.5C792.176 384.53 790.108 384.262 786.537 395.5C818.49 412.466 827.992 420.415 839.037 433.5C828.795 444.624 824.64 451.374 819.037 464C827.989 480.76 832.369 490.059 839.037 506.5C839.855 509.086 839.271 510.887 837.037 514.5C867.497 661.933 855.559 822.565 831.037 966M774.037 255.486C646.887 280.228 580.311 310.052 504.537 334C482.993 340.809 436.881 389.7 256.482 366.275M774.037 255.486C824.756 245.617 885.113 236.556 959.537 229M959.537 229C815.037 243.671 773.037 229 728.537 207.5C701.537 150 719.037 82.5 831.037 8C568.537 43.5 504.537 165.5 484.537 269.5C452.236 307.26 380.612 377.307 256.482 366.275M959.537 229C926.952 288.284 893.537 285 752.537 336M218.037 360.5C354.887 391.042 425.058 390.298 518.157 367M218.037 360.5C231.488 362.779 244.291 364.692 256.482 366.275M218.037 360.5C231.376 363.294 244.186 365.182 256.482 366.275M495.037 770C442.683 728.019 414.306 701.929 365.537 650.5C355.037 635 365.537 616 355.037 591C341.303 565.333 332.366 551.044 311.037 526C305.808 508.889 302.856 498.018 297.537 475.5C286.738 455.716 282.792 444.795 278.037 425.5C272.537 413.5 255.537 417 255.537 428.5C251.429 451.178 252.242 461.513 259.537 475.5C267.493 504.174 269.177 517.716 269.037 539C254.089 549.521 246.729 551.377 234.537 551C227.606 550.16 204.608 538.9 189.037 530M495.037 770C498.194 770.517 501.192 771.097 504.037 771.74M495.037 770C529.378 767.385 548.46 764.488 582.037 755.5C584.736 737.605 584.134 726.906 582.037 707.5C588.571 699.454 593.155 695.274 603.037 688.5C600.705 684.028 598.913 681.513 594.037 677C600.865 659.497 605.282 649.844 614.537 633C610.922 633.344 608.847 633.662 605.037 634.5C611.809 605.237 616.72 588.946 626.537 560L626.77 559.312C631.288 545.976 636.427 530.805 659.037 519.5M441.537 833.5C389.341 783.319 358.609 755.886 300.537 708.5C290.723 689.627 283.35 680.056 265.537 665.5C236.167 641.5 192.811 617.5 180.037 599.5C158.037 568.5 107.037 521.5 105.537 508L103.356 495M441.537 833.5C439.037 837 436.537 844 440.037 848C443.377 850.728 446.518 853.266 449.537 855.659M441.537 833.5C457.659 849 468.233 846.059 496.656 826M559.537 891C559.48 871.614 557.537 845 550.537 816.5C546.276 799.152 540.515 785.913 522.537 777.742M559.537 891C546.037 901.5 526.037 902.673 504.037 891C500.861 889.315 492.873 885.073 490.037 883.5M559.537 891C559.992 965.941 526 1016.18 497 1016.5M497 1016.5C476.5 1016.5 451.368 963 449.537 936.5C448.259 918 446.586 901.039 449.537 855.659M497 1016.5C688 998 739.963 972 775.5 905.5C802.457 855.056 807.312 757.617 804.5 650.5M189.037 530C189.037 513.5 187.946 505.06 186.537 486C183.537 464 171.671 468.5 172.037 476C173.037 496.5 171.86 505.862 170.037 517.224M189.037 530C182.039 526 177.037 521.988 170.037 517.224M170.037 517.224L163.037 512.5M163.037 512.5L162.037 476C158.537 441 141.037 445 141.037 454L143.537 498M163.037 512.5L143.537 498M143.537 498L129.037 486C126.537 472.5 126.537 455.5 121.037 443C121.037 421.5 116.537 396.5 103.356 395C90.0997 393.491 94.537 418.5 93.037 433.5L94.0437 439.5M103.356 495C88.537 463.5 74.8514 444.814 58.537 428.5C47.537 417.5 64.537 410.5 77.537 421.5L94.0437 439.5M103.356 495L94.0437 439.5M449.537 855.659C461.816 865.39 466.084 869.538 479.537 877.5M449.537 855.659C468.208 858.964 486.239 845.993 496.656 826M504.037 771.74C508.388 772.725 512.38 773.858 516.037 775.142M504.037 771.74C508.162 791.176 504.651 810.656 496.656 826M516.037 775.142C526.537 807 503.626 877.5 479.537 877.5M516.037 775.142C518.335 775.949 520.499 776.815 522.537 777.742M479.537 877.5C482.527 879.27 486.675 881.635 490.037 883.5M522.537 777.742C541.037 810 515.537 885 490.037 883.5"
                stroke="white" stroke-width="16" />
        </mask>
        <g mask="url(#mask1_14_11)">
            <path
                d="M349.5 562.5L369.5 601V636.5L344.5 661L390 693.5C476.629 799.454 525.739 875.075 610 910C728.569 999.483 703.61 1053.77 528 1156.5L284.5 713.5L159.5 608L44.5 512.5L24 396L132 370C138.5 428 80.5 401.5 87.5 451C121.5 469.5 181.5 512 203 528.5L226 512.5L212 569C245.515 565.491 243.396 545.552 243 516.5C251.55 535.489 274.616 538.104 279.559 547.262C270.329 511.323 260.308 494.171 240 484.5L243 455.5L298 436L324.5 516.5L307 529L313 577L349.5 562.5Z"
                fill="#8E1B23" />
        </g>
    </g>
</svg>
