<?xml version="1.0" encoding="UTF-8"?>
<svg
  width="1088"
  height="1154"
  viewBox="0 0 1088 1154"
  fill="none"
  xmlns="http://www.w3.org/2000/svg"
>
  <g filter="url(#filter0_d_14_11)">
    <circle cx="544" cy="578" r="512" fill="black" />
  </g>
  <g filter="url(#filter1_d_14_11)">
    <mask
      id="mask0_14_11"
      style="mask-type:alpha"
      maskUnits="userSpaceOnUse"
      x="32"
      y="53"
      width="1024"
      height="1037"
    >
      <path
        d="M1056 578C1056 860.77 826.77 1090 544 1090C261.23 1090 32 860.77 32 578V53H1056V578Z"
        fill="#D9D9D9"
      />
    </mask>
    <g mask="url(#mask0_14_11)">
      <path
        d="M559.512 390.5C554.675 416.224 550.816 430.615 545.037 448L566.537 459.5L588.037 507M588.037 507C675.512 455.251 716.893 437.688 775.537 429M588.037 507C564.128 523.943 552.923 535.038 536.537 557.5C580.8 546.52 598.378 552.402 621.537 576.5C591.893 605.957 578.281 623.852 561.037 659C570.773 658.656 575.398 659.25 582.537 661.375C563.265 788.99 586.081 715.318 551 831.829M775.537 429L806.037 319.486M775.537 429C798.797 428.394 811.377 429.87 832.537 437.5C824.176 448.53 822.108 448.262 818.537 459.5C850.49 476.466 859.992 484.415 871.037 497.5C860.795 508.624 856.64 515.374 851.037 528C859.989 544.76 864.369 554.059 871.037 570.5C871.855 573.086 871.271 574.887 869.037 578.5C899.497 725.933 887.559 886.565 863.037 1030M806.037 319.486C678.887 344.228 612.311 374.052 536.537 398C514.993 404.809 468.881 453.7 288.482 430.275M806.037 319.486C856.756 309.617 917.113 300.556 991.537 293M991.537 293C847.037 307.671 805.037 293 760.537 271.5C733.537 214 751.037 146.5 863.037 72C600.537 107.5 536.537 229.5 516.537 333.5C484.236 371.26 412.612 441.307 288.482 430.275M991.537 293C958.952 352.284 925.537 349 784.537 400M250.037 424.5C386.887 455.042 457.058 454.298 550.157 431M250.037 424.5C263.488 426.779 276.291 428.692 288.482 430.275M250.037 424.5C263.376 427.294 276.186 429.182 288.482 430.275M527.037 834C474.683 792.019 446.306 765.929 397.537 714.5C387.037 699 397.537 680 387.037 655C373.303 629.333 364.366 615.044 343.037 590C337.808 572.889 334.856 562.018 329.537 539.5C318.738 519.716 314.792 508.795 310.037 489.5C304.537 477.5 287.537 481 287.537 492.5C283.429 515.178 284.242 525.513 291.537 539.5C299.493 568.174 301.177 581.716 301.037 603C286.089 613.521 278.729 615.377 266.537 615C259.606 614.16 236.608 602.9 221.037 594M527.037 834C530.194 834.517 533.192 835.097 536.037 835.74M527.037 834C561.378 831.385 580.46 828.488 614.037 819.5C616.736 801.605 616.134 790.906 614.037 771.5C620.571 763.454 625.155 759.274 635.037 752.5C632.705 748.028 630.913 745.513 626.037 741C632.865 723.497 637.282 713.844 646.537 697C642.922 697.344 640.847 697.662 637.037 698.5C643.809 669.237 648.72 652.946 658.537 624L658.77 623.312C663.288 609.976 668.427 594.805 691.037 583.5M473.537 897.5C421.341 847.319 390.609 819.886 332.537 772.5C322.723 753.627 315.35 744.056 297.537 729.5C268.167 705.5 224.811 681.5 212.037 663.5C190.037 632.5 139.037 585.5 137.537 572L135.356 559M473.537 897.5C471.037 901 468.537 908 472.037 912C475.377 914.728 478.518 917.266 481.537 919.659M473.537 897.5C489.659 913 500.233 910.059 528.656 890M591.537 955C591.48 935.614 589.537 909 582.537 880.5C578.276 863.152 572.515 849.913 554.537 841.742M591.537 955C578.037 965.5 558.037 966.673 536.037 955C532.861 953.315 524.873 949.073 522.037 947.5M591.537 955C591.992 1029.94 558 1080.18 529 1080.5M529 1080.5C508.5 1080.5 483.368 1027 481.537 1000.5C480.259 982 478.586 965.039 481.537 919.659M529 1080.5C720 1062 771.963 1036 807.5 969.5C834.457 919.056 839.312 821.617 836.5 714.5M221.037 594C221.037 577.5 219.946 569.06 218.537 550C215.537 528 203.671 532.5 204.037 540C205.037 560.5 203.86 569.862 202.037 581.224M221.037 594C214.039 590 209.037 585.988 202.037 581.224M202.037 581.224L195.037 576.5M195.037 576.5L194.037 540C190.537 505 173.037 509 173.037 518L175.537 562M195.037 576.5L175.537 562M175.537 562L161.037 550C158.537 536.5 158.537 519.5 153.037 507C153.037 485.5 148.537 460.5 135.356 459C122.1 457.491 126.537 482.5 125.037 497.5L126.044 503.5M135.356 559C120.537 527.5 106.851 508.814 90.537 492.5C79.537 481.5 96.537 474.5 109.537 485.5L126.044 503.5M135.356 559L126.044 503.5M481.537 919.659C493.816 929.39 498.084 933.538 511.537 941.5M481.537 919.659C500.208 922.964 518.239 909.993 528.656 890M536.037 835.74C540.388 836.725 544.38 837.858 548.037 839.142M536.037 835.74C540.162 855.176 536.651 874.656 528.656 890M548.037 839.142C558.537 871 535.626 941.5 511.537 941.5M548.037 839.142C550.335 839.949 552.499 840.815 554.537 841.742M511.537 941.5C514.527 943.27 518.675 945.635 522.037 947.5M554.537 841.742C573.037 874 547.537 949 522.037 947.5"
        stroke="white"
        stroke-width="16"
      />
      <mask
        id="mask1_14_11"
        style="mask-type:alpha"
        maskUnits="userSpaceOnUse"
        x="78"
        y="64"
        width="928"
        height="1026"
      >
        <path
          d="M559.512 390.5C554.675 416.224 550.816 430.615 545.037 448L566.537 459.5L588.037 507M588.037 507C675.512 455.251 716.893 437.688 775.537 429M588.037 507C564.128 523.943 552.923 535.038 536.537 557.5C580.8 546.52 598.378 552.402 621.537 576.5C591.893 605.957 578.281 623.852 561.037 659C570.773 658.656 575.398 659.25 582.537 661.375C563.265 788.99 586.081 715.318 551 831.829M775.537 429L806.037 319.486M775.537 429C798.797 428.394 811.377 429.87 832.537 437.5C824.176 448.53 822.108 448.262 818.537 459.5C850.49 476.466 859.992 484.415 871.037 497.5C860.795 508.624 856.64 515.374 851.037 528C859.989 544.76 864.369 554.059 871.037 570.5C871.855 573.086 871.271 574.887 869.037 578.5C899.497 725.933 887.559 886.565 863.037 1030M806.037 319.486C678.887 344.228 612.311 374.052 536.537 398C514.993 404.809 468.881 453.7 288.482 430.275M806.037 319.486C856.756 309.617 917.113 300.556 991.537 293M991.537 293C847.037 307.671 805.037 293 760.537 271.5C733.537 214 751.037 146.5 863.037 72C600.537 107.5 536.537 229.5 516.537 333.5C484.236 371.26 412.612 441.307 288.482 430.275M991.537 293C958.952 352.284 925.537 349 784.537 400M250.037 424.5C386.887 455.042 457.058 454.298 550.157 431M250.037 424.5C263.488 426.779 276.291 428.692 288.482 430.275M250.037 424.5C263.376 427.294 276.186 429.182 288.482 430.275M527.037 834C474.683 792.019 446.306 765.929 397.537 714.5C387.037 699 397.537 680 387.037 655C373.303 629.333 364.366 615.044 343.037 590C337.808 572.889 334.856 562.018 329.537 539.5C318.738 519.716 314.792 508.795 310.037 489.5C304.537 477.5 287.537 481 287.537 492.5C283.429 515.178 284.242 525.513 291.537 539.5C299.493 568.174 301.177 581.716 301.037 603C286.089 613.521 278.729 615.377 266.537 615C259.606 614.16 236.608 602.9 221.037 594M527.037 834C530.194 834.517 533.192 835.097 536.037 835.74M527.037 834C561.378 831.385 580.46 828.488 614.037 819.5C616.736 801.605 616.134 790.906 614.037 771.5C620.571 763.454 625.155 759.274 635.037 752.5C632.705 748.028 630.913 745.513 626.037 741C632.865 723.497 637.282 713.844 646.537 697C642.922 697.344 640.847 697.662 637.037 698.5C643.809 669.237 648.72 652.946 658.537 624L658.77 623.312C663.288 609.976 668.427 594.805 691.037 583.5M473.537 897.5C421.341 847.319 390.609 819.886 332.537 772.5C322.723 753.627 315.35 744.056 297.537 729.5C268.167 705.5 224.811 681.5 212.037 663.5C190.037 632.5 139.037 585.5 137.537 572L135.356 559M473.537 897.5C471.037 901 468.537 908 472.037 912C475.377 914.728 478.518 917.266 481.537 919.659M473.537 897.5C489.659 913 500.233 910.059 528.656 890M591.537 955C591.48 935.614 589.537 909 582.537 880.5C578.276 863.152 572.515 849.913 554.537 841.742M591.537 955C578.037 965.5 558.037 966.673 536.037 955C532.861 953.315 524.873 949.073 522.037 947.5M591.537 955C591.992 1029.94 558 1080.18 529 1080.5M529 1080.5C508.5 1080.5 483.368 1027 481.537 1000.5C480.259 982 478.586 965.039 481.537 919.659M529 1080.5C720 1062 771.963 1036 807.5 969.5C834.457 919.056 839.312 821.617 836.5 714.5M221.037 594C221.037 577.5 219.946 569.06 218.537 550C215.537 528 203.671 532.5 204.037 540C205.037 560.5 203.86 569.862 202.037 581.224M221.037 594C214.039 590 209.037 585.988 202.037 581.224M202.037 581.224L195.037 576.5M195.037 576.5L194.037 540C190.537 505 173.037 509 173.037 518L175.537 562M195.037 576.5L175.537 562M175.537 562L161.037 550C158.537 536.5 158.537 519.5 153.037 507C153.037 485.5 148.537 460.5 135.356 459C122.1 457.491 126.537 482.5 125.037 497.5L126.044 503.5M135.356 559C120.537 527.5 106.851 508.814 90.537 492.5C79.537 481.5 96.537 474.5 109.537 485.5L126.044 503.5M135.356 559L126.044 503.5M481.537 919.659C493.816 929.39 498.084 933.538 511.537 941.5M481.537 919.659C500.208 922.964 518.239 909.993 528.656 890M536.037 835.74C540.388 836.725 544.38 837.858 548.037 839.142M536.037 835.74C540.162 855.176 536.651 874.656 528.656 890M548.037 839.142C558.537 871 535.626 941.5 511.537 941.5M548.037 839.142C550.335 839.949 552.499 840.815 554.537 841.742M511.537 941.5C514.527 943.27 518.675 945.635 522.037 947.5M554.537 841.742C573.037 874 547.537 949 522.037 947.5"
          stroke="white"
          stroke-width="16"
        />
      </mask>
      <g mask="url(#mask1_14_11)">
        <path
          d="M381.5 626.5L401.5 665V700.5L376.5 725L422 757.5C508.629 863.454 557.739 939.075 642 974C760.569 1063.48 735.61 1117.77 560 1220.5L316.5 777.5L191.5 672L76.5 576.5L56 460L164 434C170.5 492 112.5 465.5 119.5 515C153.5 533.5 213.5 576 235 592.5L258 576.5L244 633C277.515 629.491 275.396 609.552 275 580.5C283.55 599.489 306.616 602.104 311.559 611.262C302.329 575.323 292.308 558.171 272 548.5L275 519.5L330 500L356.5 580.5L339 593L345 641L381.5 626.5Z"
          fill="#8E1B23"
        />
      </g>
    </g>
  </g>
  <defs>
    <filter
      id="filter0_d_14_11"
      x="0"
      y="38"
      width="1088"
      height="1088"
      filterUnits="userSpaceOnUse"
      color-interpolation-filters="sRGB"
    >
      <feFlood flood-opacity="0" result="BackgroundImageFix" />
      <feColorMatrix
        in="SourceAlpha"
        type="matrix"
        values="0 0 0 0 0 0 0 0 0 0 0 0 0 0 0 0 0 0 127 0"
        result="hardAlpha"
      />
      <feOffset dy="4" />
      <feGaussianBlur stdDeviation="16" />
      <feComposite in2="hardAlpha" operator="out" />
      <feColorMatrix
        type="matrix"
        values="0 0 0 0 0 0 0 0 0 0 0 0 0 0 0 0 0 0 1 0"
      />
      <feBlend
        mode="normal"
        in2="BackgroundImageFix"
        result="effect1_dropShadow_14_11"
      />
      <feBlend
        mode="normal"
        in="SourceGraphic"
        in2="effect1_dropShadow_14_11"
        result="shape"
      />
    </filter>
    <filter
      id="filter1_d_14_11"
      x="14.9971"
      y="0.0721436"
      width="1054.89"
      height="1153.93"
      filterUnits="userSpaceOnUse"
      color-interpolation-filters="sRGB"
    >
      <feFlood flood-opacity="0" result="BackgroundImageFix" />
      <feColorMatrix
        in="SourceAlpha"
        type="matrix"
        values="0 0 0 0 0 0 0 0 0 0 0 0 0 0 0 0 0 0 127 0"
        result="hardAlpha"
      />
      <feOffset />
      <feGaussianBlur stdDeviation="32" />
      <feColorMatrix
        type="matrix"
        values="0 0 0 0 0 0 0 0 0 0 0 0 0 0 0 0 0 0 1 0"
      />
      <feBlend
        mode="normal"
        in2="BackgroundImageFix"
        result="effect1_dropShadow_14_11"
      />
      <feBlend
        mode="normal"
        in="SourceGraphic"
        in2="effect1_dropShadow_14_11"
        result="shape"
      />
    </filter>
  </defs>
</svg>
